# xmcd
#
# Track frame offsets:
#	150
#	12052
#	26417
#	39694
#	52101
#	68809
#	81355
#	92756
#	106306
#	117988
#	130765
#	145339
#	162040
#	171973
#	184432
#	201756
#	219154
#	229908
#	242388
#
# Disc length: 3343 seconds
#
# Revision: 3724605182
# Processed by: cddbd v1.5.2PL0 Copyright (c) Steve Scherf et al.
# Submitted via: EZCDAudioConverter 2.1.5.1
#
DISCID=040d0d13
DTITLE=Hank Snow - Hank Snow's Most Requested of All Time
DYEAR=2014
DGENRE=Country
TTITLE0=Hank Snow - Green Green Grass of Home
TTITLE1=Hank Snow - Squid Jiggin Ground
TTITLE2=Hank Snow - These Hands
TTITLE3=Hank Snow - I'm Movin' On
TTITLE4=Hank Snow - Black Diamond
TTITLE5=Hank Snow - I've Been Everywhere
TTITLE6=Hank Snow - My Nova Scotia Home
TTITLE7=Hank Snow - Just a Faded Petal From a Beautiful Bouquet
TTITLE8=Hank Snow - The Last Ride
TTITLE9=Hank Snow - (Now and Then There's) a Fool Such As I
TTITLE10=Hank Snow - A Daisy a Day
TTITLE11=Hank Snow - My Mother
TTITLE12=Anita Carter/Hank Snow - Down the Trail of Achin Hearts
TTITLE13=Hank Snow - Hello Love
TTITLE14=Hank Snow - Little Buddy
TTITLE15=Hank Snow - Nobody's Child
TTITLE16=Hank Snow - Snowbird
TTITLE17=Hank Snow - Yellow Roses
TTITLE18=Hank Snow - Am I Losing You
EXTD=
EXTT0=
EXTT1=
EXTT2=
EXTT3=
EXTT4=
EXTT5=
EXTT6=
EXTT7=
EXTT8=
EXTT9=
EXTT10=
EXTT11=
EXTT12=
EXTT13=
EXTT14=
EXTT15=
EXTT16=
EXTT17=
EXTT18=
PLAYORDER=
